<svg width="40" height="32" viewBox="0 0 40 32" fill="none" xmlns="http://www.w3.org/2000/svg">
<circle cx="18.0798" cy="16" r="16" fill="white"/>
<path d="M7.95374 6.30225V9.33553C7.95374 10.0172 8.51706 10.5739 9.20698 10.5739H10.1564C10.8463 10.5739 11.4097 10.0172 11.4097 9.33553V6.30225" stroke="#231F20" stroke-width="1.5" stroke-linecap="round" stroke-linejoin="round"/>
<path d="M9.68164 13.8135V6.30225" stroke="#231F20" stroke-width="1.5" stroke-linecap="round" stroke-linejoin="round"/>
<path d="M16.5112 9.01656C16.5112 7.83452 15.7201 6.30225 14.7453 6.30225C13.7706 6.30225 12.9794 7.83452 12.9794 9.01656C12.9794 10.1986 13.7706 10.5739 14.7453 10.5739C15.7201 10.5739 16.5112 10.1986 16.5112 9.01656Z" stroke="#231F20" stroke-width="1.5" stroke-linecap="round" stroke-linejoin="round"/>
<path d="M14.7452 10.5676V13.8136" stroke="#231F20" stroke-width="1.5" stroke-linecap="round" stroke-linejoin="round"/>
<path d="M9.80193 13.8135H9.56774C9.16573 13.8135 8.83984 14.1355 8.83984 14.5327V17.9913C8.83984 18.3885 9.16573 18.7105 9.56774 18.7105H9.80193C10.2039 18.7105 10.5298 18.3885 10.5298 17.9913V14.5327C10.5298 14.1355 10.2039 13.8135 9.80193 13.8135Z" stroke="#231F20" stroke-width="1.5" stroke-linecap="round" stroke-linejoin="round"/>
<path d="M14.8592 13.8135H14.625C14.223 13.8135 13.8971 14.1355 13.8971 14.5327V17.9913C13.8971 18.3885 14.223 18.7105 14.625 18.7105H14.8592C15.2612 18.7105 15.5871 18.3885 15.5871 17.9913V14.5327C15.5871 14.1355 15.2612 13.8135 14.8592 13.8135Z" stroke="#231F20" stroke-width="1.5" stroke-linecap="round" stroke-linejoin="round"/>
<path d="M28.8475 26.4908H3.95349C2.53567 26.4908 1.39636 25.3588 1.39636 23.9578V5.83944C1.39636 4.4385 2.53567 3.31274 3.95349 3.31274H33.0946C34.5061 3.31274 35.6517 4.4385 35.6517 5.83944V20.518" stroke="#231F20" stroke-width="1.5" stroke-linecap="round" stroke-linejoin="round"/>
<path d="M35.6453 24.0338V24.0266" stroke="#231F20" stroke-width="1.5" stroke-linecap="round" stroke-linejoin="round"/>
<path d="M24.0877 22.9072H1.39636" stroke="#231F20" stroke-width="1.5" stroke-linecap="round" stroke-linejoin="round"/>
<path d="M22.79 26.4907H14.8275V30.6873H22.79V26.4907Z" stroke="#231F20" stroke-width="1.5" stroke-linecap="round" stroke-linejoin="round"/>
<path d="M11.6881 30.6873H25.9232" stroke="#231F20" stroke-width="1.5" stroke-linecap="round" stroke-linejoin="round"/>
<path d="M38.1581 26.9598L32.0755 30.5309C31.6451 30.7873 31.0881 30.6435 30.8285 30.2244L29.7968 28.5108C29.5437 28.0855 29.6892 27.5351 30.1133 27.2787L30.3538 27.1411L31.4488 26.497L35.6453 24.0391L36.196 23.7138C36.6264 23.4574 37.1834 23.6013 37.4429 24.0203L38.4746 25.7339C38.7341 26.1592 38.5885 26.7096 38.1581 26.966V26.9598Z" stroke="#231F20" stroke-width="1.5" stroke-linecap="round" stroke-linejoin="round"/>
<path d="M30.3602 27.1411C30.2906 27.1223 29.7209 26.966 28.8538 26.4969C28.0183 26.0466 26.917 25.2836 25.7523 24.0765C25.4612 23.7763 24.651 23.2572 24.094 22.9133C23.7585 22.7069 23.5054 22.563 23.5054 22.563C23.0117 22.2253 22.8534 21.5811 23.1319 21.062L23.2015 20.9307C23.499 20.3803 24.1763 20.1677 24.7396 20.4303L26.1511 21.087L21.5749 13.7947C21.3533 13.4569 21.4672 13.0066 21.8154 12.8002L22.3724 12.475C22.7015 12.2811 23.1319 12.3812 23.3345 12.6939L25.4422 16.0587C25.4738 16.115 25.5118 16.1775 25.5498 16.24L27.955 20.0864" stroke="#231F20" stroke-width="1.5" stroke-linecap="round" stroke-linejoin="round"/>
<path d="M25.5371 16.2338C25.4928 16.1712 25.4548 16.1149 25.4295 16.0524C25.1383 15.4833 25.3852 15.0392 25.6574 14.8829L26.0878 14.6264C26.5182 14.4201 26.8093 14.4826 27.1321 14.8391C27.3663 15.0955 27.6132 15.5083 27.9423 16.0837L29.7019 18.9669" stroke="#231F20" stroke-width="1.5" stroke-linecap="round" stroke-linejoin="round"/>
<path d="M31.1957 16.878L29.7336 14.4827C29.4235 14.0136 28.7905 13.8635 28.2968 14.1512L27.1259 14.8392" stroke="#231F20" stroke-width="1.5" stroke-linecap="round" stroke-linejoin="round"/>
<path d="M29.9678 14.8328L30.3222 14.6264C31.0628 14.1948 32.0185 14.4325 32.4679 15.1642L35.4491 20.1113C35.5314 20.2426 35.601 20.374 35.6643 20.5178C35.9555 21.112 36.1137 21.7561 36.1517 22.4191L36.2087 23.7074" stroke="#231F20" stroke-width="1.5" stroke-linecap="round" stroke-linejoin="round"/>
<path d="M20.8215 6.30225H32.2083" stroke="#231F20" stroke-width="1.5" stroke-linecap="round" stroke-linejoin="round"/>
<path d="M23.5179 8.9978H32.2084" stroke="#231F20" stroke-width="1.5" stroke-linecap="round" stroke-linejoin="round"/>
<path d="M26.746 11.4683H32.2083" stroke="#231F20" stroke-width="1.5" stroke-linecap="round" stroke-linejoin="round"/>
</svg>
