<?xml version="1.0" encoding="UTF-8"?>
<svg id="Layer_2" data-name="Layer 2" xmlns="http://www.w3.org/2000/svg" viewBox="0 0 7322.53 1664.87">
  <g id="Layer_1-2" data-name="Layer 1">
    <path d="m970.84,0c36.13,6.35,72.3,12.43,108.37,19.12,75.57,14.02,148.45,35.72,214.81,75.84,12.06,7.29,19.08,12.3,14.56,31.2-21.57,90.22-39.33,181.34-59.7,271.86-1.71,7.6-12.65,18.7-19.4,18.77-108.6,1.18-217.23.83-313.24.83-18.55-30.42-27.17-64.01-46.95-72.93-40.94-18.46-88.59-17.43-129.76,5.46-31.87,17.72-31.74,72,.62,87.52,53.74,25.77,109.49,47.68,165.36,68.64,70.17,26.32,139.08,55.6,196.37,104.25,52.81,44.85,84.89,101.94,91.71,173.84,10.12,106.72-16.01,205.06-62.21,298.83-56.9,115.49-152.01,190.84-269.25,238.99-74.1,30.43-151.67,48.77-232.32,51.37-67.23,2.17-134.83,9.67-201.62,5.17C281.21,1368.87,134.99,1351.33,0,1285.05c0-2.11,0-4.22,0-6.33.96-.43,2.64-.7,2.79-1.33,22.46-96.08,44.04-192.38,67.45-288.23,13.27-54.33.95-44.81,51.39-45.77,19.02-.36,38.04-.06,57.07-.06,91.77,0,183.53,0,278.08,0-.84,11.79-.52,20.99-2.29,29.78-5.4,26.75,8.81,57.37,33.42,64.2,42.03,11.68,84.45,12.27,124.74-7.01,50.08-23.96,53.37-76.36,6.94-106.49-14.63-9.49-30.04-18.4-46.19-24.85-95.89-38.32-195.94-67.81-279.14-132.66-52.49-40.92-95.31-87.47-112.15-155.48-16.02-64.7-10.81-127.68,2.19-191.08,19.51-95.19,60.87-180.08,126.9-251.65,79.23-85.88,182.23-126.91,294.32-148.85C642.53,12.01,679.85,6.37,717.02,0,801.63,0,886.23,0,970.84,0Z"/>
    <path d="m4410.02,1664.87v-208.9h2912.51v208.9h-2912.51Z"/>
    <path d="m1697.47,1353.58c7.19-32.74,14.23-64.8,20.77-94.6-36.2,25.32-72.53,52.51-110.61,76.99-82.97,53.33-252.6,62.74-330.55,6.73-45.87-32.95-69.2-75.83-71.29-131.16-4.27-113.27,32.9-210.33,117.47-286.87,68.68-62.17,153.15-95.18,242.02-113.04,71.05-14.28,144.23-18,216.44-26.64,16.38-1.96,32.65-4.89,48.58-7.32,6.2-40.34-8.1-64.92-45.03-76.46-65.69-20.53-133.42-15.64-199.33-6.78-81.39,10.93-161.56,30.89-244.16,47.33,13.96-60.75,28.64-124.47,43.23-188.21,8.04-35.14,14.82-70.63,24.61-105.28,2.64-9.34,13.2-21.73,21.83-23.29,78.46-14.1,156.9-30.49,236.13-37.54,83.67-7.45,168.3-9.07,252.29-6.45,78.09,2.44,154.08,19.57,220,66.28,50.96,36.1,74.58,87.46,80.64,147.32,10.25,101.32-18.46,197.85-39.55,295.18-12.89,59.48-26.75,118.75-40.61,180.06h73.57c-21.79,96-43.03,189.62-64.39,283.74h-452.03Zm87.85-398.81c-23.8,2.91-42.32,3.8-60.21,7.63-50.18,10.74-96.52,26.63-109.15,85.93-4.6,21.58,8.63,49.82,29.73,52.65,28.58,3.83,56.6.78,79.04-20.39,34.58-32.63,50.64-74.26,60.59-125.82Z"/>
    <path d="m2820.81,1020.18c53.45-108.65,106.9-217.29,162.25-329.81h-66.94c7.76-35,14.66-66.51,21.75-97.98,12.69-56.31,25.65-112.56,38.13-168.92,3.1-13.98,6.05-24.94,24.93-24.86,155.39.66,310.79.48,466.19.68,2.91,0,5.81,1.59,10.35,2.91-22.05,95.5-44,190.61-65.83,285.15-3.25.98-5.41,2.43-7.18,2.05-53.77-11.31-76.61,17.19-99.86,62.52-96.33,187.83-198.19,372.83-296.79,559.52-17.5,33.14-39.09,45-77.89,44.27-149.99-2.83-300.06-1.15-453.67-1.15-4.76-36.39-10.68-71.76-13.8-107.38-7.18-82-12.15-164.2-19.63-246.17-7.26-79.65-16.78-159.1-24.72-238.69-1.56-15.67.26-31.65-.67-47.42-.97-16.58-7.9-27.09-27.51-25.3-15.54,1.42-31.31.29-49.79.29,22.53-98.68,44.27-193.87,66.18-289.83h527.36c-6.81,31.21-12.96,60.68-19.7,90.02-12.92,56.24-28.24,112.04-38.33,168.77-4.56,25.62-14.24,34.14-38.56,31.26-11.35-1.35-22.99-.23-38.33-.23,4.62,110.52,9.16,219.15,13.71,327.79,2.78.84,5.56,1.67,8.35,2.51Z"/>
    <path d="m4337.85,943.29h-545.76c-31.18,71.52,10.86,122.13,95.69,125.86,123.6,5.44,245.35-11.26,364.74-44,10.95-3,21.82-6.31,37.3-10.8-7.09,35.29-13.12,68.72-20.61,101.83-11.81,52.23-23.58,104.53-37.75,156.15-3.26,11.89-14.35,27.54-24.97,30.58-80.18,22.97-160.18,49.09-242.15,62.6-74.99,12.36-152.61,15.96-228.66,12.98-107.62-4.21-209.58-30.87-287.93-113.41-46.91-49.42-72.41-109.5-77.4-175.56-10.55-139.69,17.53-273.24,81.75-397.7,76-147.27,193.93-244.64,355.98-287.21,131.81-34.63,263.74-40.11,394.61,1.08,103.73,32.65,149.34,113.74,169.36,214.36,19.98,100.44-8.39,195.62-28.97,291.8-1.95,9.12-3.08,18.42-5.21,31.44Zm-501.92-196.2c51.72,0,103.3-1.83,154.67.68,31.47,1.54,41.56-11.02,38.89-39.66-.58-6.24-.07-12.58-.09-18.88-.1-41.18-20.87-62.02-62.43-62.64-76.93-1.16-117.63,35.86-131.05,120.51Z"/>
    <path d="m4748.47,1165.51h687.74v174.13h-871.9V8.01h852.2v167.83h-667.7v399.17h591.89v163.78h-592.24v426.72Z"/>
    <path d="m6243.29,740.42c-6.24-63.63-7.01-123.51-18.99-181.06-16.48-79.13-77.8-111.67-151.69-121.98-128.62-17.95-256.13-5.35-382.21,24.07-4.7,1.1-9.99-.35-16.23-.68v-158.82c53.22-7.71,106.93-18.08,161.13-22.73,77.2-6.61,154.83-13.18,232.17-12.06,76.79,1.11,152.96,13.34,219.57,57.63,73.53,48.89,108.66,121.13,120.88,204.98,6.45,44.29,6.7,89.72,6.83,134.64.65,213.06.29,426.12.29,639.18v36.29h-161.84c-3.1-30.44-6.1-59.88-9.3-91.37-93.24,64.3-193.73,96.11-303.26,107.38-63.53,6.54-124.11,1.98-185.04-13.53-91.75-23.36-147.26-83.99-168.57-173.06-21.23-88.75-23.33-178.56,3.04-268.04,26.16-88.75,88.12-138.35,173.61-159.63,115.2-28.68,232.58-24.75,349.8-13.76,40.21,3.77,80.4,7.76,129.81,12.55Zm-5.71,146.81c-11.7-.53-20.13,0-28.22-1.41-107.63-18.63-215.95-27.92-324.34-11.22-34.47,5.31-72.51,16.48-99.16,37.37-58.29,45.69-49.44,112.51-37.16,175.71,12.24,63.05,57.45,94.7,117.61,101.56,43.95,5.01,89.12,3.51,133.43.45,78.67-5.44,151.16-33.27,219.96-70.23,8.77-4.71,16.87-19.46,17.1-29.74,1.53-66.26.78-132.57.78-202.48Z"/>
    <path d="m6582.04,291.55h154.01c9.69-87.33,19.14-172.46,28.69-258.51h144.73v257.38h366.15v152.26h-365.65c0,11.57,0,19.72,0,27.86,0,169.78-1.39,339.58,1.01,509.32.57,40.63,9.93,82.26,21.99,121.36,20.72,67.18,80.39,85.02,140.15,87.45,71.48,2.91,143.42-5.56,216.22-9.15v153.56c-49.04,7.04-100.07,12.14-150.14,22.07-71.82,14.25-142.1,2.8-210.16-14.81-112.5-29.1-167.74-111.83-183.15-222.19-7.91-56.63-12.14-114.15-12.77-171.32-1.7-155-.58-310.03-.58-465.04v-37.9h-150.49v-152.34Z"/>
  </g>
</svg>