<svg width="33" height="32" viewBox="0 0 33 32" fill="none" xmlns="http://www.w3.org/2000/svg">
<circle cx="16.5" cy="16" r="16" fill="white"/>
<path d="M27.0299 21.3521H26.5965C24.127 21.3521 22.1263 23.3528 22.1263 25.8222V26.306H31.5V25.8222C31.5 23.3528 29.4993 21.3521 27.0299 21.3521Z" stroke="#231F20" stroke-width="1.5" stroke-linecap="round" stroke-linejoin="round"/>
<path d="M26.8131 30C28.8541 30 30.5021 28.347 30.5021 26.311H23.119C23.119 28.3521 24.772 30 26.808 30H26.8131Z" stroke="#231F20" stroke-width="1.5" stroke-linecap="round" stroke-linejoin="round"/>
<path d="M28.2091 21.5134C27.7656 16.5494 26.2185 15.0325 26.2185 15.0325" stroke="#231F20" stroke-width="1.5" stroke-linecap="round" stroke-linejoin="round"/>
<path d="M24.4799 21.8914V15.0325" stroke="#231F20" stroke-width="1.5" stroke-linecap="round" stroke-linejoin="round"/>
<path d="M22.9176 26.3062H17.7268" stroke="#231F20" stroke-width="1.5" stroke-linecap="round" stroke-linejoin="round"/>
<path d="M10.9788 18.3335H15.847C16.8852 18.3335 17.7268 19.1751 17.7268 20.2133V26.3062H3.1976V23.6553C3.1976 21.1103 4.99171 18.9786 7.38048 18.4544" stroke="#231F20" stroke-width="1.5" stroke-linecap="round" stroke-linejoin="round"/>
<path d="M20.3221 26.3061V18.8878C20.3221 17.5372 19.3848 16.368 18.0644 16.0807C17.7519 16.0102 17.5302 15.738 17.5302 15.4155V13.8633" stroke="#231F20" stroke-width="1.5" stroke-linecap="round" stroke-linejoin="round"/>
<path d="M16.3308 11.6357L17.122 13.4046C17.374 13.8582 17.8528 14.1404 18.3718 14.1404H24.4799V12.0086H20.0551C19.4856 12.0086 18.9716 11.671 18.7448 11.1519L17.5302 8.37003C17.2581 7.74008 16.6382 7.33691 15.9528 7.33691H15.3128C15.3128 7.33691 13.0248 7.12021 13.0248 9.5745V16.7509C13.0248 17.6228 13.7304 18.3333 14.6073 18.3333H15.4942" stroke="#231F20" stroke-width="1.5" stroke-linecap="round" stroke-linejoin="round"/>
<path d="M12.788 4.66595C12.788 6.13752 13.9824 7.33191 15.4539 7.33191C16.9255 7.33191 18.1199 6.13752 18.1199 4.66595C18.1199 3.19439 16.9255 2 15.4539 2C13.9824 2 12.788 3.19439 12.788 4.66595Z" stroke="#231F20" stroke-width="1.5" stroke-linecap="round" stroke-linejoin="round"/>
<path d="M26.6217 11.3484H24.4799V15.0323H26.6217C27.4734 15.0323 28.1638 14.3419 28.1638 13.4902V12.8905C28.1638 12.0388 27.4734 11.3484 26.6217 11.3484Z" stroke="#231F20" stroke-width="1.5" stroke-linecap="round" stroke-linejoin="round"/>
<path d="M25.3064 11.3484L23.9356 9.39307" stroke="#231F20" stroke-width="1.5" stroke-linecap="round" stroke-linejoin="round"/>
<path d="M21.9953 8.6069C21.9953 9.22677 22.4993 9.73577 23.1242 9.73577C23.7491 9.73577 24.2531 9.23181 24.2531 8.6069C24.2531 7.98199 23.7491 7.47803 23.1242 7.47803C22.4993 7.47803 21.9953 7.98199 21.9953 8.6069Z" stroke="#231F20" stroke-width="1.5" stroke-linecap="round" stroke-linejoin="round"/>
<path d="M7.38045 18.3333H5.94416C5.40996 18.3333 4.97655 17.8999 4.97655 17.3657V11.8927C4.97655 11.3585 5.40996 10.925 5.94416 10.925H12.0572C12.5914 10.925 13.0198 11.3585 13.0198 11.8927V17.3657C13.0198 17.8999 12.5914 18.3333 12.0572 18.3333H10.9787" stroke="#231F20" stroke-width="1.5" stroke-linecap="round" stroke-linejoin="round"/>
<path d="M13.1105 21.3521H9.13422" stroke="#231F20" stroke-width="1.5" stroke-linecap="round" stroke-linejoin="round"/>
<path d="M13.1105 23.3276H9.13422" stroke="#231F20" stroke-width="1.5" stroke-linecap="round" stroke-linejoin="round"/>
<path d="M9.8851 30C11.9261 30 13.5741 28.347 13.5741 26.311H6.19106C6.19106 28.3521 7.84406 30 9.88006 30H9.8851Z" stroke="#231F20" stroke-width="1.5" stroke-linecap="round" stroke-linejoin="round"/>
<path d="M17.5302 15.4155C17.5302 15.4155 15.6302 16.2975 13.0197 15.8842" stroke="#231F20" stroke-width="1.5" stroke-linecap="round" stroke-linejoin="round"/>
<path d="M13.0197 3.57739H19.6367" stroke="#231F20" stroke-width="1.5" stroke-linecap="round" stroke-linejoin="round"/>
<path d="M7.86932 17.2649H10.4899C10.7599 17.2649 10.9788 17.4838 10.9788 17.7537V19.0086C10.9788 19.2786 10.7599 19.4974 10.4899 19.4974H7.86932C7.59934 19.4974 7.38048 19.2786 7.38048 19.0086V17.7537C7.38048 17.4838 7.59934 17.2649 7.86932 17.2649Z" stroke="#231F20" stroke-width="1.5" stroke-linecap="round" stroke-linejoin="round"/>
<path d="M12.1077 14.982C12.1077 13.8582 10.9675 12.946 9.56266 12.946C8.15779 12.946 7.01766 13.8582 7.01766 14.982H12.1077Z" stroke="#231F20" stroke-width="1.5" stroke-linecap="round" stroke-linejoin="round"/>
<path d="M7.01758 11.928H2.94557" stroke="#231F20" stroke-width="1.5" stroke-linecap="round" stroke-linejoin="round"/>
<path d="M3.96362 12.946H1.92762" stroke="#231F20" stroke-width="1.5" stroke-linecap="round" stroke-linejoin="round"/>
<path d="M5.99963 13.9641H2.94563" stroke="#231F20" stroke-width="1.5" stroke-linecap="round" stroke-linejoin="round"/>
<path d="M3.96362 14.9819H2.94562" stroke="#231F20" stroke-width="1.5" stroke-linecap="round" stroke-linejoin="round"/>
<path d="M2.94568 17.0181H1.92768" stroke="#231F20" stroke-width="1.5" stroke-linecap="round" stroke-linejoin="round"/>
</svg>
