<svg width="33" height="32" viewBox="0 0 33 32" fill="none" xmlns="http://www.w3.org/2000/svg">
<circle cx="16.5" cy="16" r="16" fill="white"/>
<path d="M7.43701 20.4293V19.2853C7.43701 16.0596 10.0532 13.4434 13.2789 13.4434H19.8992C23.1202 13.4434 25.7364 16.0549 25.7364 19.2806V23.1111" stroke="#231F20" stroke-width="1.5" stroke-linecap="round" stroke-linejoin="round"/>
<path d="M11.6192 7.99995C10.8549 7.11381 9.26552 3.49894 12.66 1.23438C12.66 1.23438 12.5428 3.79901 15.7217 2.33618C19.0927 0.784275 22.2669 2.74878 21.0666 6.2605" stroke="#231F20" stroke-width="1.5" stroke-linecap="round" stroke-linejoin="round"/>
<path d="M21.5777 8.46416C21.5777 11.2163 19.3459 13.4481 16.5891 13.4481C13.8322 13.4481 11.6005 11.2163 11.6005 8.46416C11.6005 8.30944 11.6052 8.15471 11.6239 7.99999C11.6239 7.99999 16.4812 7.4655 17.9488 3.66309C19.3225 4.04755 20.4524 5.0087 21.076 6.26523C21.3995 6.92631 21.5824 7.67648 21.5824 8.46416H21.5777Z" stroke="#231F20" stroke-width="1.5" stroke-linecap="round" stroke-linejoin="round"/>
<path d="M3.84558 27.298C3.84558 22.6751 7.59173 18.929 12.2146 18.929C16.8375 18.929 20.5837 22.6751 20.5837 27.298H3.84558Z" stroke="#231F20" stroke-width="1.5" stroke-linecap="round" stroke-linejoin="round"/>
<path d="M20.9634 27.2981H3.47048C3.06257 27.2981 2.73438 27.6263 2.73438 28.0342V28.0342C2.73438 28.4421 3.06257 28.7703 3.47048 28.7703H20.9634C21.3713 28.7703 21.6995 28.4421 21.6995 28.0342C21.6995 27.6263 21.3713 27.2981 20.9634 27.2981Z" stroke="#231F20" stroke-width="1.5" stroke-linecap="round" stroke-linejoin="round"/>
<path d="M13.8604 19.0885C13.7525 18.2774 13.0586 17.6538 12.2194 17.6538C11.3801 17.6538 10.6862 18.2774 10.5784 19.0885" stroke="#231F20" stroke-width="1.5" stroke-linecap="round" stroke-linejoin="round"/>
<path d="M10.5737 20.3074C10.5737 20.3074 6.53212 21.2638 5.46313 25.6007" stroke="#231F20" stroke-width="1.5" stroke-linecap="round" stroke-linejoin="round"/>
<path d="M12.6414 13.4808C12.6414 13.4808 13.1196 15.6187 16.5844 15.6187C20.0493 15.6187 20.4759 13.4761 20.4759 13.4761" stroke="#231F20" stroke-width="1.5" stroke-linecap="round" stroke-linejoin="round"/>
<path d="M21.5776 21.1045V27.6263" stroke="#231F20" stroke-width="1.5" stroke-linecap="round" stroke-linejoin="round"/>
<path d="M21.5776 23.1113H25.7364" stroke="#231F20" stroke-width="1.5" stroke-linecap="round" stroke-linejoin="round"/>
<path d="M24.6909 23.1113V28.1093C24.6909 28.4703 24.3955 28.7657 24.0345 28.7657H20.9635" stroke="#231F20" stroke-width="1.5" stroke-linecap="round" stroke-linejoin="round"/>
<path d="M26.6179 28.7655V25.3804" stroke="#231F20" stroke-width="1.5" stroke-linecap="round" stroke-linejoin="round"/>
<path d="M24.9535 13.7012C24.9535 13.7012 27.4619 14.9952 27.6916 18.371V22.014" stroke="#231F20" stroke-width="1.5" stroke-linecap="round" stroke-linejoin="round"/>
</svg>
