<svg width="39" height="32" viewBox="0 0 39 32" fill="none" xmlns="http://www.w3.org/2000/svg">
<circle cx="20.3004" cy="16" r="16" fill="white"/>
<path d="M6.75874 19.3047C3.74812 19.3047 1.30042 21.7461 1.30042 24.763V25.0729H12.2107V24.763C12.2107 21.7524 9.76936 19.3047 6.75241 19.3047H6.75874Z" stroke="#231F20" stroke-width="1.5" stroke-linecap="round" stroke-linejoin="round"/>
<path d="M6.75867 29.3673C4.38686 29.3673 2.46411 27.4446 2.46411 25.0728H11.0532C11.0532 27.4446 9.13048 29.3673 6.75867 29.3673V29.3673Z" stroke="#231F20" stroke-width="1.5" stroke-linecap="round" stroke-linejoin="round"/>
<path d="M5.13318 19.4881C5.65181 13.7073 7.44806 11.9426 7.44806 11.9426" stroke="#231F20" stroke-width="1.5" stroke-linecap="round" stroke-linejoin="round"/>
<path d="M9.47205 19.9309V11.9426" stroke="#231F20" stroke-width="1.5" stroke-linecap="round" stroke-linejoin="round"/>
<path d="M11.2872 25.0728H17.3338" stroke="#231F20" stroke-width="1.5" stroke-linecap="round" stroke-linejoin="round"/>
<path d="M29.7432 15.8892C32.3427 16.6355 34.2464 19.1528 34.2464 21.9863V25.0728H17.3339V17.9764C17.3339 17.6222 17.4224 17.2806 17.5742 16.9834" stroke="#231F20" stroke-width="1.5" stroke-linecap="round" stroke-linejoin="round"/>
<path d="M7.11923 7.66064H9.47207V11.9489H7.11923C6.05034 11.9489 5.18384 11.0824 5.18384 10.0135V9.59604C5.18384 8.52715 6.05034 7.66064 7.11923 7.66064Z" stroke="#231F20" stroke-width="1.5" stroke-linecap="round" stroke-linejoin="round"/>
<path d="M8.51062 7.6607L10.1108 5.37744" stroke="#231F20" stroke-width="1.5" stroke-linecap="round" stroke-linejoin="round"/>
<path d="M11.0533 5.7757C11.7763 5.7757 12.3625 5.18954 12.3625 4.46647C12.3625 3.74339 11.7763 3.15723 11.0533 3.15723C10.3302 3.15723 9.74402 3.74339 9.74402 4.46647C9.74402 5.18954 10.3302 5.7757 11.0533 5.7757Z" stroke="#231F20" stroke-width="1.5" stroke-linecap="round" stroke-linejoin="round"/>
<path d="M22.7036 19.3047H27.3397" stroke="#231F20" stroke-width="1.5" stroke-linecap="round" stroke-linejoin="round"/>
<path d="M22.7036 21.6069H27.3397" stroke="#231F20" stroke-width="1.5" stroke-linecap="round" stroke-linejoin="round"/>
<path d="M26.4606 29.3673C24.0888 29.3673 22.166 27.4446 22.166 25.0728H30.7615C30.7615 27.4446 28.8387 29.3673 26.4669 29.3673H26.4606Z" stroke="#231F20" stroke-width="1.5" stroke-linecap="round" stroke-linejoin="round"/>
<path d="M29.7431 15.7184H31.9504V10.9052V7.0534V4.80176H30.9448H17.7575H16.0498V14.7001" stroke="#231F20" stroke-width="1.5" stroke-linecap="round" stroke-linejoin="round"/>
<path d="M8.66882 9.50757L11.6225 10.2602" stroke="#231F20" stroke-width="1.5" stroke-linecap="round" stroke-linejoin="round"/>
<path d="M11.9514 22.8845H17.3338" stroke="#231F20" stroke-width="1.5" stroke-linecap="round" stroke-linejoin="round"/>
<path d="M19.1364 13.1696C19.1364 10.6523 21.1793 8.60938 23.6966 8.60938C26.2138 8.60938 28.2567 10.6523 28.2567 13.1696H19.1364V13.1696Z" stroke="#231F20" stroke-width="1.5" stroke-linecap="round" stroke-linejoin="round"/>
<path d="M18.2699 13.1694H29.1233" stroke="#231F20" stroke-width="1.5" stroke-linecap="round" stroke-linejoin="round"/>
<path d="M22.9692 7.04102H24.3544" stroke="#231F20" stroke-width="1.5" stroke-linecap="round" stroke-linejoin="round"/>
<path d="M31.9504 4.80176H37.1305" stroke="#231F20" stroke-width="1.5" stroke-linecap="round" stroke-linejoin="round"/>
<path d="M29.4838 7.05347H35.7011" stroke="#231F20" stroke-width="1.5" stroke-linecap="round" stroke-linejoin="round"/>
<path d="M33.6708 9.01416H37.6997" stroke="#231F20" stroke-width="1.5" stroke-linecap="round" stroke-linejoin="round"/>
<path d="M30.2554 10.8989H35.1571" stroke="#231F20" stroke-width="1.5" stroke-linecap="round" stroke-linejoin="round"/>
<path d="M33.4431 13.0747H36.245" stroke="#231F20" stroke-width="1.5" stroke-linecap="round" stroke-linejoin="round"/>
<path d="M35.5493 15.7185H37.295" stroke="#231F20" stroke-width="1.5" stroke-linecap="round" stroke-linejoin="round"/>
<path d="M35.1635 17.9639H36.245" stroke="#231F20" stroke-width="1.5" stroke-linecap="round" stroke-linejoin="round"/>
<path d="M31.9504 15.7185H33.6708" stroke="#231F20" stroke-width="1.5" stroke-linecap="round" stroke-linejoin="round"/>
<path d="M30.9512 2H17.7639V4.8019H30.9512V2Z" stroke="#231F20" stroke-width="1.5" stroke-linecap="round" stroke-linejoin="round"/>
<path d="M16.1953 16.9834H29.7431V14.6938H16.1953C15.5628 14.6938 15.0505 15.2062 15.0505 15.8386C15.0505 16.4711 15.5628 16.9834 16.1953 16.9834V16.9834Z" stroke="#231F20" stroke-width="1.5" stroke-linecap="round" stroke-linejoin="round"/>
</svg>
