<svg width="33" height="32" viewBox="0 0 33 32" fill="none" xmlns="http://www.w3.org/2000/svg">
<g clip-path="url(#clip0_1425_25698)">
<path d="M17.475 32H16.9137C16.6326 31.9207 16.3407 31.9357 16.0538 31.9198C14.8344 31.8522 13.6892 31.4809 12.5615 31.0603C10.6607 30.351 8.98334 29.2787 7.48201 27.9118C4.86386 25.5294 3.24493 22.5886 2.51845 19.1397C2.22236 17.7361 2.15897 16.3091 2.25989 14.8888C2.48092 11.7562 3.53435 8.91475 5.41435 6.3871C6.94987 4.32258 8.87741 2.72454 11.1711 1.57462C12.5699 0.873655 14.0453 0.378805 15.5992 0.148487C16.0388 0.0833975 16.4833 0.0583629 16.9245 0.00412139C19.1156 -0.0526236 21.1841 0.446399 23.1709 1.35098C25.2269 2.28811 26.996 3.6141 28.4948 5.29309C30.575 7.62214 31.897 10.335 32.3649 13.4268C32.5484 14.636 32.5058 15.8694 32.465 17.0969C32.4349 17.9923 32.3699 18.8785 32.1539 19.7505C31.5341 22.2548 30.414 24.5021 28.7283 26.464C27.3296 28.0929 25.6915 29.4206 23.7781 30.3919C22.4102 31.0862 20.9706 31.5961 19.4534 31.8548C18.9338 31.9432 18.4008 31.9524 17.872 31.9716C17.7403 31.9766 17.6035 31.9349 17.475 32.0008V32Z" fill="#3C3C3C"/>
<path d="M0.5 14.8297C0.582573 14.2781 0.648465 13.7231 0.749387 13.174C1.43249 9.45057 3.21907 6.35129 6.0766 3.87955C8.42785 1.84424 11.1636 0.626723 14.2363 0.172763C15.1213 0.042583 16.0137 -0.00331368 16.9087 0.0417485C16.2473 0.161914 15.5825 0.262887 14.9261 0.40475C13.1445 0.790282 11.4739 1.45537 9.92418 2.42337C8.80068 3.12517 7.76393 3.93712 6.84979 4.89344C5.53362 6.27034 4.47685 7.82332 3.70701 9.57574C3.0581 11.0536 2.61854 12.5882 2.45089 14.1863C2.18232 16.7523 2.4559 19.2616 3.38922 21.6866C3.99142 23.2521 4.80464 24.6933 5.84807 26.0017C6.66546 27.0273 7.6138 27.9211 8.65389 28.7255C10.4688 30.1283 12.5023 31.0512 14.7201 31.5903C15.3857 31.7522 16.0646 31.8365 16.741 31.9383C16.8003 31.9475 16.8553 31.9792 16.9129 32.0009H15.2906C14.7885 31.9416 14.2805 31.9566 13.7784 31.8949C12.7325 31.7655 11.7299 31.4626 10.7474 31.0913C9.07176 30.4579 7.55291 29.5567 6.17419 28.4117C4.35675 26.9013 2.943 25.0755 1.91959 22.9517C1.27652 21.6182 0.807772 20.2221 0.611766 18.7459C0.543372 18.2344 0.560887 17.7153 0.5 17.2029C0.5 16.4118 0.5 15.6208 0.5 14.8305L0.5 14.8297Z" fill="#3C3C3C"/>
<path d="M18.4251 2.76888C19.5928 2.89155 20.7088 3.21449 21.7714 3.69766C25.9709 5.60696 28.6542 8.80387 29.59 13.3259C30.4691 17.5735 29.4432 21.4154 26.6415 24.7359C24.5814 27.1784 21.934 28.6446 18.7963 29.2271C18.6745 29.2496 18.5485 29.2504 18.4251 29.2613C17.7695 29.3639 17.1465 29.2045 16.5293 29.0193C14.5383 28.4226 12.7684 27.4404 11.2254 26.036C9.00509 24.0157 7.58467 21.5381 7.02751 18.5991C6.44949 15.5448 6.84318 12.6075 8.27528 9.82028C8.90917 8.58691 9.70571 7.4737 10.6774 6.49986C12.5082 4.66483 14.6876 3.42228 17.2232 2.83063C17.6211 2.738 18.0206 2.7138 18.4251 2.76721V2.76888Z" fill="#DCF0D5"/>
<path d="M18.425 2.76871C17.1806 2.88303 16.0154 3.27608 14.8735 3.76425C13.7075 4.26244 12.6557 4.94588 11.6874 5.75116C10.4229 6.80261 9.39533 8.06018 8.59378 9.49967C7.76555 10.9867 7.23425 12.5756 7.01405 14.2604C6.87976 15.291 6.89061 16.3291 6.97985 17.3672C7.05575 18.2509 7.23258 19.1138 7.49531 19.9566C8.01494 21.6197 8.82482 23.126 9.92413 24.4845C11.0176 25.8355 12.3288 26.922 13.8409 27.7557C15.2689 28.5434 16.7852 29.1001 18.425 29.2619C17.5576 29.4681 16.6743 29.4722 15.7943 29.4255C14.5799 29.3604 13.3814 29.161 12.2337 28.7437C7.53201 27.0347 4.49682 23.7669 3.39418 18.8818C2.435 14.6309 3.43588 10.7622 6.21501 7.3976C8.18926 5.0068 10.7348 3.51557 13.7625 2.87052C15.2655 2.55007 16.7852 2.4925 18.3107 2.72532C18.3508 2.73116 18.3875 2.75452 18.4258 2.76954L18.425 2.76871Z" fill="#CFCCCC"/>
<path d="M15.1889 13.4469C15.1889 11.45 15.1839 9.45309 15.1889 7.457C15.1905 6.736 15.6193 6.21612 16.2773 6.10263C16.8695 6.00082 17.4701 6.36049 17.6836 6.94296C17.7495 7.12154 17.7662 7.30679 17.7662 7.49455C17.7662 9.48063 17.7653 11.4675 17.7645 13.4536C17.6169 13.5679 17.4842 13.4795 17.3491 13.4219C16.7828 13.2442 16.2189 13.2266 15.6509 13.4236C15.5058 13.4736 15.349 13.5863 15.188 13.4469H15.1889Z" fill="black"/>
<path d="M17.4116 13.3342C17.5292 13.3734 17.6468 13.4135 17.7644 13.4527C18.6611 13.9768 19.2007 14.7328 19.32 15.7834C19.4593 17.0101 18.581 18.3603 17.4075 18.69C16.8995 18.6758 16.5759 18.3361 16.2698 18.0048C15.1254 16.7656 15.2781 14.5676 16.8094 13.5529C16.9963 13.4294 17.1856 13.3384 17.4116 13.3351V13.3342Z" fill="#3C3C3C"/>
<path d="M13.9094 17.3039C12.4448 17.3039 10.981 17.3114 9.51636 17.3031C8.81907 17.2989 8.30779 16.8641 8.19268 16.2174C8.08843 15.6274 8.44624 15.0258 9.02759 14.8088C9.20608 14.742 9.39041 14.7253 9.57808 14.7253C11.0219 14.7253 12.4648 14.7262 13.9086 14.727C14.0195 14.8405 13.9561 14.959 13.9161 15.0733C13.7009 15.68 13.6767 16.2858 13.9052 16.8967C13.9528 17.0235 14.0387 17.167 13.9094 17.3031V17.3039Z" fill="black"/>
<path d="M13.9094 17.304C13.519 16.4453 13.5173 15.5858 13.9094 14.7271C14.2163 14.1805 14.6433 13.755 15.1888 13.447C15.9161 13.1424 16.6526 13.0131 17.4125 13.3344C16.9879 13.6081 16.5492 13.8518 16.2339 14.2765C15.1738 15.7043 15.585 17.6704 17.1414 18.5324C17.2315 18.5824 17.3199 18.6367 17.4091 18.6893C16.5992 19.0831 15.369 18.8537 14.6058 18.1735C14.3239 17.9224 14.1054 17.6236 13.911 17.304H13.9094Z" fill="#3C3C3C"/>
</g>
<defs>
<clipPath id="clip0_1425_25698">
<rect width="32" height="32" fill="white" transform="translate(0.5)"/>
</clipPath>
</defs>
</svg>
