<svg width="21" height="20" viewBox="0 0 21 20" fill="none" xmlns="http://www.w3.org/2000/svg">
<g clip-path="url(#clip0_1485_12194)">
<path d="M5.53434 9.61563C2.89858 7.1372 3.28907 3.55027 5.91262 1.48491C8.42635 -0.491564 12.3312 -0.502022 14.8815 1.47445C17.5051 3.50844 17.9382 7.12151 15.2781 9.61563C15.3208 9.64177 15.3574 9.66792 15.4001 9.68883C17.3586 10.6771 18.6094 12.1568 19.4025 13.945C20.1591 15.6653 20.4093 17.4588 20.4093 19.2888C20.4093 19.681 20.0554 19.9738 19.6039 19.9947C19.549 19.9947 19.5002 19.9947 19.4453 19.9947C13.4172 19.9947 7.39523 19.9947 1.36716 19.9947C0.732631 19.9947 0.403162 19.7124 0.409263 19.1738C0.427567 17.3071 0.696023 15.4823 1.51359 13.7359C2.31896 12.0156 3.56973 10.6091 5.46722 9.66792C5.49163 9.65746 5.50993 9.64177 5.54044 9.61563H5.53434ZM18.6948 18.5568C18.6948 18.5568 18.7192 18.5202 18.7192 18.5045C18.646 17.0352 18.4019 15.5869 17.7491 14.2169C17.0108 12.6588 15.8455 11.43 14.0395 10.6928C13.8748 10.6248 13.7589 10.6405 13.6124 10.7084C11.4709 11.6758 9.32933 11.6758 7.19389 10.7032C7.04746 10.6352 6.93763 10.63 6.7851 10.6875C5.16216 11.3463 4.03342 12.4235 3.27686 13.7986C2.63623 14.9699 2.31896 16.2143 2.17253 17.4954C2.12982 17.8457 2.11152 18.2013 2.08101 18.5568H18.6948ZM10.4154 1.42216C7.65758 1.42216 5.41231 3.34112 5.40621 5.69929C5.40621 8.06269 7.64538 9.9921 10.3971 9.9921C13.1548 9.9921 15.4001 8.07314 15.4062 5.71497C15.4062 3.35157 13.167 1.42739 10.4154 1.42216V1.42216Z" fill="black"/>
</g>
<defs>
<clipPath id="clip0_1485_12194">
<rect width="20" height="20" fill="white" transform="translate(0.40332)"/>
</clipPath>
</defs>
</svg>
