<svg width="33" height="32" viewBox="0 0 33 32" fill="none" xmlns="http://www.w3.org/2000/svg">
<circle cx="16.5" cy="16" r="16" fill="white"/>
<path d="M13.5444 17.9785V20.1749C13.5444 20.6713 13.9472 21.0693 14.4389 21.0693H15.1179C15.6143 21.0693 16.0124 20.6666 16.0124 20.1749V17.9785" stroke="#231F20" stroke-width="1.5" stroke-linecap="round" stroke-linejoin="round"/>
<path d="M14.7808 25.7945V17.9785" stroke="#231F20" stroke-width="1.5" stroke-linecap="round" stroke-linejoin="round"/>
<path d="M19.6606 19.9407C19.6606 19.0884 19.0939 17.9785 18.3961 17.9785C17.6984 17.9785 17.1317 19.0884 17.1317 19.9407C17.1317 20.793 17.6984 21.0647 18.3961 21.0647C19.0939 21.0647 19.6606 20.793 19.6606 19.9407Z" stroke="#231F20" stroke-width="1.5" stroke-linecap="round" stroke-linejoin="round"/>
<path d="M18.4008 21.0693V25.7945" stroke="#231F20" stroke-width="1.5" stroke-linecap="round" stroke-linejoin="round"/>
<path d="M22.7419 16.2693H10.4677V27.5039H22.7419V16.2693Z" stroke="#231F20" stroke-width="1.5" stroke-linecap="round" stroke-linejoin="round"/>
<path d="M13.5959 12.7618C13.6662 13.9607 14.9587 14.9113 16.5275 14.9113C18.0964 14.9113 19.3983 13.956 19.4591 12.7524" stroke="#231F20" stroke-width="1.5" stroke-linecap="round" stroke-linejoin="round"/>
<path d="M15.221 11.5815V12.7195H15.0945C15.0945 12.7195 14.4717 12.6774 13.5959 12.7664C11.9194 12.9256 9.31563 13.5484 8.41648 15.7963C7.80768 17.3323 6.37467 27.9535 9.14235 29.2507C11.6712 30.4355 12.8232 27.5086 12.8232 27.5086" stroke="#231F20" stroke-width="1.5" stroke-linecap="round" stroke-linejoin="round"/>
<path d="M17.8153 11.5908V12.7194H18.0822C18.0822 12.7194 18.6536 12.6867 19.4684 12.7522C21.1403 12.8974 23.8471 13.4921 24.765 15.7915C25.3784 17.3276 26.8068 27.9487 24.0391 29.2459C21.5102 30.4308 20.3582 27.5038 20.3582 27.5038" stroke="#231F20" stroke-width="1.5" stroke-linecap="round" stroke-linejoin="round"/>
<path d="M20.4425 5.69971C20.6907 6.23826 20.8312 6.84237 20.8312 7.48395C20.8312 9.85826 18.9065 11.7877 16.5275 11.7877C14.1485 11.7877 12.2238 9.85826 12.2238 7.48395C12.2238 7.25917 12.2378 7.04374 12.2753 6.82832" stroke="#231F20" stroke-width="1.5" stroke-linecap="round" stroke-linejoin="round"/>
<path d="M13.5163 5.4561C13.151 5.4561 12.6687 5.32497 12.6734 5.02057C12.6874 3.9341 13.5772 2 16.5182 2C20.6018 2 20.4426 5.7043 20.4426 5.7043L13.5163 5.4561V5.4561Z" stroke="#231F20" stroke-width="1.5" stroke-linecap="round" stroke-linejoin="round"/>
<path d="M20.4426 5.69946C20.4426 5.69946 14.673 7.45561 11.704 6.72505C9.43738 6.16777 12.6687 5.02979 12.6687 5.02979" stroke="#231F20" stroke-width="1.5" stroke-linecap="round" stroke-linejoin="round"/>
<path d="M7.54065 21.8843H10.4676" stroke="#231F20" stroke-width="1.5" stroke-linecap="round" stroke-linejoin="round"/>
<path d="M22.7419 21.8843H25.6361" stroke="#231F20" stroke-width="1.5" stroke-linecap="round" stroke-linejoin="round"/>
</svg>
