<svg width="32" height="34" viewBox="0 0 32 34" fill="none" xmlns="http://www.w3.org/2000/svg">
<circle cx="16" cy="18" r="16" fill="white"/>
<path d="M13.8804 14.7869C13.9704 16.3228 15.6262 17.5407 17.6361 17.5407C19.646 17.5407 21.3138 16.3168 21.3918 14.7749" stroke="#231F20" stroke-width="1.5" stroke-linecap="round" stroke-linejoin="round"/>
<path d="M15.9622 13.2751V14.2351H15.8002C15.8002 14.2351 15.0022 14.1991 13.8803 14.2711C11.7325 14.4031 8.39672 14.931 7.2448 16.8209C6.46486 18.1108 4.62899 27.0622 8.17474 28.1541C11.4145 29.15 12.8904 26.6842 12.8904 26.6842" stroke="#231F20" stroke-width="1.5" stroke-linecap="round" stroke-linejoin="round"/>
<path d="M19.286 13.2871V14.241H19.628C19.628 14.241 20.3599 14.211 21.4039 14.271C23.5457 14.391 27.0135 14.895 28.1894 16.8269C28.9753 18.1168 30.8052 27.0621 27.2594 28.16C24.0197 29.156 22.5438 26.6902 22.5438 26.6902" stroke="#231F20" stroke-width="1.5" stroke-linecap="round" stroke-linejoin="round"/>
<path d="M22.6517 5.73975C22.9697 6.4297 23.1496 7.20364 23.1496 8.02558C23.1496 11.0674 20.6838 13.5392 17.636 13.5392C14.5883 13.5392 12.1224 11.0674 12.1224 8.02558C12.1224 7.7376 12.1404 7.46162 12.1884 7.18564" stroke="#231F20" stroke-width="1.5" stroke-linecap="round" stroke-linejoin="round"/>
<path d="M13.7783 5.42768C13.3104 5.42768 12.6924 5.2597 12.6984 4.86972C12.7164 3.47782 13.8563 1 17.6241 1C22.8557 1 22.6517 5.74566 22.6517 5.74566L13.7783 5.42768V5.42768Z" stroke="#231F20" stroke-width="1.5" stroke-linecap="round" stroke-linejoin="round"/>
<path d="M22.6518 5.73977C22.6518 5.73977 15.2603 7.98961 11.4566 7.05368C8.55276 6.33973 12.6925 4.88184 12.6925 4.88184" stroke="#231F20" stroke-width="1.5" stroke-linecap="round" stroke-linejoin="round"/>
<path d="M7.12292 26.4741H26.5975" stroke="#231F20" stroke-width="1.5" stroke-linecap="round" stroke-linejoin="round"/>
<path d="M24.5975 26.4741H28.3053" stroke="#231F20" stroke-width="1.5" stroke-linecap="round" stroke-linejoin="round"/>
</svg>
