<svg width="23" height="25" viewBox="0 0 23 25" fill="none" xmlns="http://www.w3.org/2000/svg">
<path d="M17.9277 7.20711C18.3019 6.81658 18.3019 6.18342 17.9277 5.79289C17.5534 5.40237 16.9466 5.40237 16.5724 5.79289L11.5 11.0858L6.42766 5.79289C6.05341 5.40237 5.44663 5.40237 5.07238 5.79289C4.69812 6.18342 4.69812 6.81658 5.07238 7.20711L10.1447 12.5L5.07238 17.7929C4.69812 18.1834 4.69812 18.8166 5.07238 19.2071C5.44663 19.5976 6.05341 19.5976 6.42766 19.2071L11.5 13.9142L16.5724 19.2071C16.9466 19.5976 17.5534 19.5976 17.9277 19.2071C18.3019 18.8166 18.3019 18.1834 17.9277 17.7929L12.8553 12.5L17.9277 7.20711Z" fill="#3A3A3A"/>
</svg>
